<svg id="Layer_1" data-name="Layer 1" xmlns="http://www.w3.org/2000/svg" viewBox="0 0 268.65 154.25"><defs><style>.cls-1{fill:#1f427a;}.cls-2,.cls-4{fill:none;stroke-miterlimit:10;stroke-width:10.24px;}.cls-2{stroke:#1f427a;}.cls-3{fill:#ac2a24;}.cls-4{stroke:#aa2924;}</style></defs><rect class="cls-1" x="0.11" y="24.55" width="120.7" height="10"/><path class="cls-1" d="M121.1,10H.4V4.86A4.86,4.86,0,0,1,5.26,0H121.1V10Z" transform="translate(0.11 0.15)"/><rect class="cls-1" x="0.11" y="50.16" width="120.7" height="10"/><path class="cls-2" d="M263.39,76.97H134.21v-72H258.08a5.31,5.31,0,0,1,5.31,5.31V76.97Z" transform="translate(0.11 0.15)"/><polyline class="cls-3" points="268.65 128.41 148.28 128.41 148.28 118.41 268.65 118.41"/><path class="cls-3" d="M268.39,148.56a5.49,5.49,0,0,1-5.55,5.41H148.02v-10H268.39" transform="translate(0.11 0.15)"/><polyline class="cls-3" points="268.02 104.1 147.65 104.1 147.65 94.1 268.02 94.1"/><path class="cls-4" d="M5.02,76.98H134.2v72H10.27a5.26,5.26,0,0,1-5.26-5.26V76.98h.01Z" transform="translate(0.11 0.15)"/></svg>